<svg width="24" height="24" viewBox="0 0 24 24" fill="none" xmlns="http://www.w3.org/2000/svg">
  <path
    d="M5.2647 11.7169L9.75 7.23162C10.0588 6.92279 10.5588 6.92279 10.8529 7.23162C11.1618 7.54044 11.1618 8.04044 10.8529 8.33456L7.69118 11.4963L19.2206 11.4963C19.6471 11.4963 20 11.8493 20 12.2757C20 12.7022 19.6471 13.0551 19.2206 13.0551L7.70588 13.0551L10.8529 16.2169C11.1618 16.5257 11.1618 17.0257 10.8529 17.3199C10.7059 17.4669 10.5 17.5551 10.2941 17.5551C10.0882 17.5551 9.89706 17.4816 9.73529 17.3199L5.23529 12.8199C5.08823 12.6728 5 12.4669 5 12.261C5.02941 12.0699 5.11765 11.864 5.2647 11.7169Z" />
</svg>