<svg width="24" height="24" viewBox="0 0 24 24" fill="none" xmlns="http://www.w3.org/2000/svg">
  <path
    d="M19.7353 12.8383L15.25 17.3236C14.9412 17.6324 14.4412 17.6324 14.1471 17.3236C13.8382 17.0147 13.8382 16.5147 14.1471 16.2206L17.3088 13.0589H5.77941C5.35294 13.0589 5 12.7059 5 12.2794C5 11.853 5.35294 11.5 5.77941 11.5H17.2941L14.1471 8.33826C13.8382 8.02944 13.8382 7.52944 14.1471 7.23532C14.2941 7.08826 14.5 7.00003 14.7059 7.00003C14.9118 7.00003 15.1029 7.07356 15.2647 7.23532L19.7647 11.7353C19.9118 11.8824 20 12.0883 20 12.2941C19.9706 12.4853 19.8824 12.6912 19.7353 12.8383Z" />
</svg>