<svg width="20" height="20" viewBox="0 0 20 20" fill="none" xmlns="http://www.w3.org/2000/svg">
<path d="M17.346 2.478H14.868V1.239C14.868 0.554 14.313 0 13.629 0C12.945 0 12.39 0.554 12.39 1.239V2.478H7.434V1.239C7.434 0.554 6.879 0 6.195 0C5.511 0 4.956 0.554 4.956 1.239V2.478H2.478C1.11 2.478 0 3.588 0 4.956V17.346C0 18.714 1.11 19.824 2.478 19.824H17.346C18.714 19.824 19.824 18.714 19.824 17.346V4.956C19.824 3.587 18.714 2.478 17.346 2.478ZM17.346 17.346H2.478V6.814H17.346V17.346Z" fill="#313136"/>
</svg>
