<svg width="24" height="24" viewBox="0 0 24 24" fill="none" xmlns="http://www.w3.org/2000/svg">
  <path
    d="M0.999859 18V21H3.99986C3.99986 19.34 2.65986 18 0.999859 18ZM0.999859 14V16C3.75986 16 5.99986 18.24 5.99986 21H7.99986C7.99986 17.13 4.86986 14 0.999859 14ZM18.9999 7H4.99986V8.63C8.95986 9.91 12.0899 13.04 13.3699 17H18.9999V7ZM0.999859 10V12C5.96986 12 9.99986 16.03 9.99986 21H11.9999C11.9999 14.92 7.06986 10 0.999859 10ZM20.9999 3H2.99986C1.89986 3 0.999859 3.9 0.999859 5V8H2.99986V5H20.9999V19H13.9999V21H20.9999C22.0999 21 22.9999 20.1 22.9999 19V5C22.9999 3.9 22.0999 3 20.9999 3Z" />
</svg>