<?xml version="1.0" standalone="no"?>
<!DOCTYPE svg PUBLIC "-//W3C//DTD SVG 20010904//EN"
 "http://www.w3.org/TR/2001/REC-SVG-20010904/DTD/svg10.dtd">
<svg version="1.0" xmlns="http://www.w3.org/2000/svg"
 width="600.000000pt" height="600.000000pt" viewBox="0 0 600.000000 600.000000"
 preserveAspectRatio="xMidYMid meet">

<g transform="translate(0.000000,600.000000) scale(0.100000,-0.100000)"
fill="#000000" stroke="none">
<path d="M630 5234 c-184 -49 -331 -201 -369 -382 -7 -34 -11 -199 -11 -452
l0 -400 250 0 250 0 0 375 0 375 2250 0 2250 0 0 -1750 0 -1750 -875 0 -875 0
0 -250 0 -250 903 0 c984 0 956 -2 1077 58 70 34 177 141 212 212 62 124 58 4
58 1980 0 1973 3 1855 -57 1979 -35 72 -143 180 -213 214 -127 61 43 57 -2485
56 -1992 0 -2318 -2 -2365 -15z"/>
<path d="M250 3254 l0 -250 158 -11 c547 -41 1048 -269 1432 -653 392 -393
623 -909 656 -1468 l7 -122 250 0 250 0 -7 133 c-29 562 -214 1071 -553 1526
-114 152 -382 420 -534 534 -455 339 -964 524 -1526 553 l-133 7 0 -249z"/>
<path d="M250 2253 l0 -250 86 -7 c311 -24 572 -144 794 -366 222 -222 342
-483 366 -794 l7 -86 248 0 249 0 0 48 c0 71 -18 215 -40 321 -45 215 -155
463 -288 651 -86 121 -280 316 -402 403 -52 37 -162 101 -245 142 -223 111
-426 166 -672 181 l-103 7 0 -250z"/>
<path d="M250 1126 l0 -376 376 0 377 0 -6 64 c-34 364 -319 649 -683 683
l-64 6 0 -377z"/>
</g>
</svg>
