<svg width="24" height="24" viewBox="0 0 24 24" fill="none" xmlns="http://www.w3.org/2000/svg">
  <path fill="#313136" fill-rule="evenodd" clip-rule="evenodd"
    d="M11.9995 1.99951C17.5184 1.99951 22.0005 6.48012 22.0005 12.0005C22.0005 17.5194 17.5184 22 11.9995 22C6.48061 22 2 17.5194 2 12.0005C2 6.48012 6.48061 1.99951 11.9995 1.99951ZM11.9995 3.9997C16.4152 3.9997 20.0003 7.58476 20.0003 12.0005C20.0003 16.4147 16.4152 19.9998 11.9995 19.9998C7.58381 19.9998 4.00019 16.4147 4.00019 12.0005C4.00019 7.58476 7.58381 3.9997 11.9995 3.9997Z" />
  <path fill="#313136" fill-rule="evenodd" clip-rule="evenodd"
    d="M12.975 11.447L15.0386 12.6025C15.5087 12.8657 15.6586 13.4796 15.3732 13.9728C15.0878 14.4659 14.4747 14.6525 14.0045 14.3893L11.4495 12.9586C11.1455 12.7883 10.9632 12.4603 10.9705 12.0989L11.08 7.03824C11.0921 6.47957 11.5482 6.01102 12.098 5.9924C12.6478 5.97378 13.0842 6.41215 13.0721 6.97082L12.975 11.447Z" />
</svg>