<svg width="20" height="20" viewBox="0 0 20 20" fill="none" xmlns="http://www.w3.org/2000/svg">
  <path
    d="M10 0C8.02219 0 6.08879 0.58649 4.4443 1.6853C2.79981 2.78412 1.51809 4.3459 0.761209 6.17317C0.00433284 8.00043 -0.193701 10.0111 0.192152 11.9509C0.578004 13.8907 1.53041 15.6725 2.92894 17.0711C4.32746 18.4696 6.10929 19.422 8.0491 19.8079C9.98891 20.1937 11.9996 19.9957 13.8268 19.2388C15.6541 18.4819 17.2159 17.2002 18.3147 15.5557C19.4135 13.9112 20 11.9778 20 10C20 8.68678 19.7413 7.38642 19.2388 6.17317C18.7363 4.95991 17.9997 3.85752 17.0711 2.92893C16.1425 2.00035 15.0401 1.26375 13.8268 0.761205C12.6136 0.258658 11.3132 0 10 0ZM13.54 13.54C13.4466 13.6327 13.3357 13.706 13.2139 13.7558C13.0921 13.8055 12.9616 13.8308 12.83 13.83C12.6984 13.8308 12.5679 13.8055 12.4461 13.7558C12.3243 13.706 12.2134 13.6327 12.12 13.54L9.29 10.71C9.20005 10.6178 9.12875 10.5092 9.08 10.39C9.0711 10.3438 9.0711 10.2962 9.08 10.25C9.03845 10.1722 9.01135 10.0875 9 10V6C9 5.73478 9.10536 5.48043 9.2929 5.29289C9.48043 5.10536 9.73479 5 10 5C10.2652 5 10.5196 5.10536 10.7071 5.29289C10.8946 5.48043 11 5.73478 11 6V9.58L13.54 12.12C13.6337 12.213 13.7081 12.3236 13.7589 12.4454C13.8097 12.5673 13.8358 12.698 13.8358 12.83C13.8358 12.962 13.8097 13.0927 13.7589 13.2146C13.7081 13.3364 13.6337 13.447 13.54 13.54Z" />
</svg>