<svg width="56" height="50" viewBox="0 0 56 50" fill="none" xmlns="http://www.w3.org/2000/svg">
<g filter="url(#filter0_d)">
<circle cx="26" cy="26" r="20" fill="url(#paint0_linear)"/>
</g>
<path d="M26 18C24.4087 18 22.8826 18.6484 21.7574 19.8026C20.6321 20.9568 20 22.5222 20 24.1545C20 27.3548 24.986 33.1461 25.556 33.7985C25.6122 33.862 25.6808 33.9127 25.7572 33.9474C25.8337 33.9821 25.9164 34 26 34C26.0836 34 26.1663 33.9821 26.2428 33.9474C26.3192 33.9127 26.3878 33.862 26.444 33.7985C27.014 33.1461 32 27.3548 32 24.1545C32 22.5222 31.3679 20.9568 30.2426 19.8026C29.1174 18.6484 27.5913 18 26 18ZM26 27.2317C25.288 27.2317 24.592 27.0151 23.9999 26.6094C23.4079 26.2036 22.9465 25.6269 22.674 24.9521C22.4016 24.2774 22.3303 23.5349 22.4692 22.8186C22.6081 22.1023 22.9509 21.4443 23.4544 20.9279C23.9579 20.4115 24.5993 20.0598 25.2977 19.9173C25.996 19.7748 26.7198 19.8479 27.3777 20.1274C28.0355 20.4069 28.5977 20.8802 28.9933 21.4875C29.3889 22.0947 29.6 22.8087 29.6 23.539C29.6 24.5184 29.2207 25.4576 28.5456 26.1501C27.8705 26.8426 26.9548 27.2317 26 27.2317Z" fill="white"/>
<defs>
<filter id="filter0_d" x="0" y="0" width="56" height="56" filterUnits="userSpaceOnUse" color-interpolation-filters="sRGB">
<feFlood flood-opacity="0" result="BackgroundImageFix"/>
<feColorMatrix in="SourceAlpha" type="matrix" values="0 0 0 0 0 0 0 0 0 0 0 0 0 0 0 0 0 0 127 0"/>
<feOffset dx="2" dy="2"/>
<feGaussianBlur stdDeviation="4"/>
<feColorMatrix type="matrix" values="0 0 0 0 0 0 0 0 0 0 0 0 0 0 0 0 0 0 0.16 0"/>
<feBlend mode="normal" in2="BackgroundImageFix" result="effect1_dropShadow"/>
<feBlend mode="normal" in="SourceGraphic" in2="effect1_dropShadow" result="shape"/>
</filter>
<linearGradient id="paint0_linear" x1="6" y1="6" x2="46" y2="46" gradientUnits="userSpaceOnUse">
<stop stop-color="#FFAA30"/>
<stop offset="0.802083" stop-color="#FE7000"/>
</linearGradient>
</defs>
</svg>
