<svg width="24" height="24" viewBox="0 0 24 24" fill="none" xmlns="http://www.w3.org/2000/svg">
<circle cx="12" cy="5" r="3" />
<path fill-rule="evenodd" clip-rule="evenodd" d="M12 12.0282L10.1831 9H12H12.1215H13.8169L12 12.0282ZM11.5712 13.2572L9.01689 9C8.24936 9 7.79221 9.00062 7.40668 9.1671C6.84014 9.41174 6.42828 10.0146 5.4134 11.5C4.23593 13.2234 3.65843 14.3815 3.42305 14.8536C3.39315 14.9135 3.36877 14.9624 3.34938 15C2.83331 16 2.93658 16.6 3.34938 17C3.52956 17.1746 3.9495 17.5461 4.42278 17.9647C5.03378 18.5052 5.73369 19.1243 6.12139 19.5C6.81338 20 6.96141 20 7.47741 19.5C7.99342 19 7.89626 18.3776 7.47741 18C7.17974 17.7317 6.54463 17.1083 6.01244 16.586L6.01239 16.5859L6.01233 16.5859C5.78126 16.3591 5.56961 16.1514 5.4134 16L7.47741 13.5L8.45282 20.654C8.47984 20.8522 8.64912 21 8.84915 21H12H12.1215H15.1564C15.354 21 15.522 20.8557 15.5518 20.6603L16.644 13.5L18.708 16C18.5518 16.1514 18.3401 16.3592 18.109 16.586C17.5768 17.1083 16.9417 17.7317 16.644 18C16.2252 18.3776 16.128 19 16.644 19.5C17.16 20 17.3081 20 18 19.5C18.3877 19.1243 19.0876 18.5052 19.6987 17.9647L19.6987 17.9647L19.6989 17.9645C20.1721 17.5459 20.5919 17.1746 20.772 17C21.1849 16.6 21.2881 16 20.772 15C20.7527 14.9624 20.7283 14.9135 20.6984 14.8536C20.463 14.3816 19.8855 13.2234 18.708 11.5C17.6932 10.0146 17.2813 9.41174 16.7147 9.1671C16.3278 9 15.8687 9 15.096 9H14.9831L12.9764 12.3445L13.6073 12.5994C13.8121 12.6821 13.9111 12.9153 13.8283 13.1201L13.0042 15.1599C12.9214 15.3647 12.6883 15.4637 12.4835 15.3809L11.3709 14.9314C11.166 14.8486 11.0671 14.6155 11.1498 14.4107L11.5991 13.2988C11.5892 13.2855 11.5799 13.2716 11.5712 13.2572Z"/>
</svg>
