<svg width="56" height="50" viewBox="0 0 56 50" fill="none" xmlns="http://www.w3.org/2000/svg">
<g filter="url(#filter0_d)">
<circle cx="26" cy="26" r="20" fill="url(#paint0_linear)"/>
</g>
<path fill-rule="evenodd" clip-rule="evenodd" d="M25.5789 23.0526C26.9742 23.0526 28.1053 21.9216 28.1053 20.5263C28.1053 19.1311 26.9742 18 25.5789 18C24.1837 18 23.0526 19.1311 23.0526 20.5263C23.0526 21.9216 24.1837 23.0526 25.5789 23.0526ZM24.141 23.8947L25.579 26.2913L27.0169 23.8947H25.6812V23.8947H24.141ZM22.9748 23.8948L25.1502 27.5204C25.167 27.5484 25.1863 27.5743 25.2077 27.598L24.8867 28.3925C24.8039 28.5974 24.9029 28.8305 25.1077 28.9133L25.9275 29.2445C26.1324 29.3273 26.3655 29.2283 26.4482 29.0235L27.0949 27.4229C27.1777 27.218 27.0787 26.9849 26.8739 26.9021L26.4753 26.7411L28.1831 23.8947H28.1861C28.8368 23.8947 29.2234 23.8947 29.5493 24.0355C30.0263 24.2415 30.3732 24.7491 31.2278 26C32.2194 27.4513 32.7057 28.4266 32.9039 28.8241C32.9291 28.8746 32.9496 28.9157 32.9659 28.9474C33.4005 29.7895 33.3136 30.2947 32.9659 30.6316C32.8142 30.7786 32.4606 31.0914 32.0621 31.4439L32.062 31.444L32.0619 31.4441C31.5474 31.8992 30.9581 32.4205 30.6316 32.7368C30.0489 33.1579 29.9242 33.1579 29.4897 32.7368C29.0552 32.3158 29.137 31.7916 29.4897 31.4737C29.7404 31.2477 30.2751 30.7229 30.7233 30.283L30.7233 30.283L30.7235 30.2828C30.9181 30.0919 31.0963 29.9169 31.2278 29.7895L29.4897 27.6842L28.5781 33.6603C28.5483 33.8557 28.3803 34 28.1827 34L25.5789 34H22.9807C22.7807 34 22.6114 33.8522 22.5844 33.654L21.7705 27.6842L20.0323 29.7895C20.1638 29.9169 20.3419 30.0917 20.5364 30.2826L20.5368 30.2829L20.5368 30.283L20.5369 30.283C20.985 30.7229 21.5198 31.2477 21.7705 31.4737C22.1232 31.7916 22.205 32.3158 21.7705 32.7368C21.3359 33.1579 21.2113 33.1579 20.6286 32.7368C20.3021 32.4205 19.7127 31.8992 19.1982 31.444L19.1982 31.444L19.1981 31.444L19.1981 31.444L19.1981 31.444L19.1981 31.4439C18.7996 31.0914 18.446 30.7786 18.2942 30.6316C17.9466 30.2947 17.8596 29.7895 18.2942 28.9474C18.3105 28.9158 18.3311 28.8746 18.3562 28.8242L18.3563 28.8241C18.5545 28.4266 19.0408 27.4513 20.0323 26C20.887 24.7491 21.2338 24.2415 21.7109 24.0354C22.0198 23.902 22.3834 23.8951 22.9748 23.8948Z" fill="white"/>
<defs>
<filter id="filter0_d" x="0" y="0" width="56" height="56" filterUnits="userSpaceOnUse" color-interpolation-filters="sRGB">
<feFlood flood-opacity="0" result="BackgroundImageFix"/>
<feColorMatrix in="SourceAlpha" type="matrix" values="0 0 0 0 0 0 0 0 0 0 0 0 0 0 0 0 0 0 127 0"/>
<feOffset dx="2" dy="2"/>
<feGaussianBlur stdDeviation="4"/>
<feColorMatrix type="matrix" values="0 0 0 0 0 0 0 0 0 0 0 0 0 0 0 0 0 0 0.16 0"/>
<feBlend mode="normal" in2="BackgroundImageFix" result="effect1_dropShadow"/>
<feBlend mode="normal" in="SourceGraphic" in2="effect1_dropShadow" result="shape"/>
</filter>
<linearGradient id="paint0_linear" x1="6" y1="6" x2="46" y2="46" gradientUnits="userSpaceOnUse">
<stop stop-color="#FFAA30"/>
<stop offset="0.802083" stop-color="#FE7000"/>
</linearGradient>
</defs>
</svg>
