<svg width="24" height="24" viewBox="0 0 24 24" fill="none" xmlns="http://www.w3.org/2000/svg">
<rect x="3" y="10" width="19" height="4" rx="0.4" />
<path d="M2 10.4C2 10.1791 2.17909 10 2.4 10H4V14H2.4C2.17909 14 2 13.8209 2 13.6V10.4Z"/>
<path d="M20 10H21.6C21.8209 10 22 10.1791 22 10.4V13.6C22 13.8209 21.8209 14 21.6 14H20V10Z"/>
<path d="M2 8.4C2 8.17909 2.17909 8 2.4 8H5V16H2.4C2.17909 16 2 15.8209 2 15.6V8.4Z"/>
<path d="M19 8H21.6C21.8209 8 22 8.17909 22 8.4V15.6C22 15.8209 21.8209 16 21.6 16H19V8Z"/>
<rect x="5" y="6" width="4" height="12" rx="0.4"/>
<rect x="15" y="6" width="4" height="12" rx="0.4"/>
</svg>
