<svg width="56" height="50" viewBox="0 0 56 50" fill="none" xmlns="http://www.w3.org/2000/svg">
<g filter="url(#filter0_d)">
<circle cx="26" cy="26" r="20" fill="url(#paint0_linear)"/>
</g>
<path fill-rule="evenodd" clip-rule="evenodd" d="M20.4 20.4C20.4 20.1791 20.5791 20 20.8 20H23.2C23.4209 20 23.6 20.1791 23.6 20.4V24H28.4V20.4C28.4 20.1791 28.5791 20 28.8 20H31.2C31.4209 20 31.6 20.1791 31.6 20.4L31.6 22H33.6C33.8209 22 34 22.1791 34 22.4V24.4V27.6V29.6C34 29.8209 33.8209 30 33.6 30H31.6L31.6 31.6C31.6 31.8209 31.4209 32 31.2 32H28.8C28.5791 32 28.4 31.8209 28.4 31.6V28H23.6V31.6C23.6 31.8209 23.4209 32 23.2 32H20.8C20.5791 32 20.4 31.8209 20.4 31.6V30H18.4C18.1791 30 18 29.8209 18 29.6V27.6V24.4V22.4C18 22.1791 18.1791 22 18.4 22H20.4V20.4Z" fill="white"/>
<defs>
<filter id="filter0_d" x="0" y="0" width="56" height="56" filterUnits="userSpaceOnUse" color-interpolation-filters="sRGB">
<feFlood flood-opacity="0" result="BackgroundImageFix"/>
<feColorMatrix in="SourceAlpha" type="matrix" values="0 0 0 0 0 0 0 0 0 0 0 0 0 0 0 0 0 0 127 0"/>
<feOffset dx="2" dy="2"/>
<feGaussianBlur stdDeviation="4"/>
<feColorMatrix type="matrix" values="0 0 0 0 0 0 0 0 0 0 0 0 0 0 0 0 0 0 0.16 0"/>
<feBlend mode="normal" in2="BackgroundImageFix" result="effect1_dropShadow"/>
<feBlend mode="normal" in="SourceGraphic" in2="effect1_dropShadow" result="shape"/>
</filter>
<linearGradient id="paint0_linear" x1="6" y1="6" x2="46" y2="46" gradientUnits="userSpaceOnUse">
<stop stop-color="#FFAA30"/>
<stop offset="0.802083" stop-color="#FE7000"/>
</linearGradient>
</defs>
</svg>
