<svg width="32" height="32" viewBox="0 0 32 32" fill="none" xmlns="http://www.w3.org/2000/svg">
  <path
    d="M16 6.66665V1.33331L22.6667 7.99998L16 14.6666V9.33331C11.5867 9.33331 7.99999 12.92 7.99999 17.3333C7.99999 21.7466 11.5867 25.3333 16 25.3333C20.4133 25.3333 24 21.7466 24 17.3333H26.6667C26.6667 23.2266 21.8933 28 16 28C10.1067 28 5.33332 23.2266 5.33332 17.3333C5.33332 11.44 10.1067 6.66665 16 6.66665Z" />
  <path d="M14.629 21.3512H13.5V16.9996L12.1524 17.4176V16.4996L14.5079 15.6559H14.629V21.3512Z" />
  <path
    d="M16.2969 18.5465L16.625 15.6559H19.8125V16.5973H17.5508L17.4102 17.8199C17.6784 17.6767 17.9636 17.6051 18.2657 17.6051C18.8073 17.6051 19.2318 17.7731 19.5391 18.109C19.8464 18.4449 20 18.915 20 19.5192C20 19.8864 19.9219 20.2158 19.7657 20.5074C19.612 20.7965 19.3907 21.0218 19.1016 21.1832C18.8125 21.3421 18.4714 21.4215 18.0782 21.4215C17.7344 21.4215 17.4154 21.3525 17.1211 21.2145C16.8269 21.0739 16.5938 20.8772 16.4219 20.6246C16.2526 20.372 16.1628 20.0843 16.1524 19.7614H17.2696C17.293 19.9983 17.375 20.1832 17.5157 20.316C17.6589 20.4462 17.8451 20.5114 18.0743 20.5114C18.3295 20.5114 18.5261 20.4202 18.6641 20.2379C18.8021 20.053 18.8711 19.7926 18.8711 19.4567C18.8711 19.1337 18.7917 18.8864 18.6329 18.7145C18.474 18.5426 18.2487 18.4567 17.9571 18.4567C17.6888 18.4567 17.4714 18.527 17.3047 18.6676L17.1954 18.7692L16.2969 18.5465Z" />
</svg>