<svg width="24" height="24" viewBox="0 0 24 24" fill="none" xmlns="http://www.w3.org/2000/svg">
  <path fill-rule="evenodd" clip-rule="evenodd"
    d="M8.69897 5C7.75918 5 6.96035 5.63212 6.70191 6.49836H4.56388C4.23495 6.49836 4 6.75589 4 7.08366C4 7.41143 4.25844 7.66896 4.58737 7.66896H6.7254C6.96035 8.5352 7.78267 9.16732 8.72247 9.16732C9.68576 9.16732 10.4846 8.5352 10.743 7.66896H19.4126C19.7416 7.66896 20 7.41143 20 7.08366C20 6.75589 19.7416 6.49836 19.4126 6.49836H10.743C10.4611 5.63212 9.66226 5 8.69897 5ZM8.72247 6.1706C9.21586 6.1706 9.63877 6.5686 9.63877 7.08366C9.63877 7.59872 9.21586 7.99673 8.72247 7.99673C8.22907 7.99673 7.80617 7.59872 7.80617 7.08366C7.80617 6.5686 8.22907 6.1706 8.72247 6.1706ZM15.7709 9.68251C14.8311 9.68251 14.0323 10.3146 13.7739 11.1809H4.58737C4.23495 11.1809 4 11.4384 4 11.7662C4 12.0939 4.25844 12.3515 4.58737 12.3515H13.7739C14.0088 13.2177 14.8311 13.8498 15.7709 13.8498C16.7342 13.8498 17.533 13.2177 17.7915 12.3515H19.4126C19.7416 12.3515 20 12.0939 20 11.7662C20 11.4384 19.7416 11.1809 19.4126 11.1809H17.7915C17.533 10.3146 16.7342 9.68251 15.7709 9.68251ZM15.7944 10.8531C16.2878 10.8531 16.7107 11.2511 16.7107 11.7662C16.7107 12.2812 16.2878 12.6792 15.7944 12.6792C15.301 12.6792 14.8781 12.2812 14.8781 11.7662C14.8781 11.2511 15.2775 10.8531 15.7944 10.8531ZM9.52129 16.3311C9.77974 15.4648 10.5786 14.8327 11.5184 14.8327C12.4816 14.8327 13.2805 15.4648 13.5389 16.3311H19.4126C19.7416 16.3311 20 16.5886 20 16.9164C20 17.2441 19.7416 17.5017 19.4126 17.5017H13.5624C13.304 18.3679 12.5051 19 11.5419 19C10.6021 19 9.77974 18.3679 9.54479 17.5017H4.58737C4.25844 17.5017 4 17.2441 4 16.9164C4 16.5886 4.23495 16.3311 4.58737 16.3311H9.52129ZM12.4581 16.9164C12.4581 16.4013 12.0352 16.0033 11.5419 16.0033C11.0485 16.0033 10.649 16.4013 10.6256 16.9164C10.6256 17.4314 11.0485 17.8294 11.5419 17.8294C12.0352 17.8294 12.4581 17.4314 12.4581 16.9164Z" />
</svg>