<svg width="50" height="48" viewBox="0 0 50 48" fill="none" xmlns="http://www.w3.org/2000/svg">
<path fill-rule="evenodd" clip-rule="evenodd" d="M45.1221 11.9541H20.3201V14.2042H45.1221V11.9541ZM7.154 11.9541H4.11157V14.2042H7.154V11.9541ZM16.05 34.7668H45.2289V37.0169H16.05V34.7668ZM45.2287 23.4643H38.6457V25.7144H45.2287V23.4643ZM4.21835 23.4643H25.4798V25.7144H4.21835V23.4643Z" fill="url(#paint0_linear)"/>
<path fill-rule="evenodd" clip-rule="evenodd" d="M14.0749 19.9507H13.4522C11.246 19.9507 9.44902 18.2025 9.44902 16.0562V9.89442C9.46681 7.74816 11.2638 6 13.47 6H14.0749C16.2811 6 18.0781 7.74816 18.0781 9.89442V16.0562C18.0781 18.2025 16.2811 19.9507 14.0749 19.9507ZM13.47 8.25011C12.5448 8.25011 11.7798 8.99437 11.7798 9.89442V16.0562C11.7798 16.9563 12.5448 17.7006 13.47 17.7006H14.0749C15.0001 17.7006 15.7652 16.9563 15.7652 16.0562V9.89442C15.7652 8.99437 15.0001 8.25011 14.0749 8.25011H13.47ZM32.4186 31.4609H31.7959C29.5897 31.4609 27.7927 29.7127 27.7927 27.5664V21.4046C27.7927 19.2584 29.5897 17.5102 31.7959 17.5102H32.4186C34.6248 17.5102 36.4218 19.2584 36.4218 21.4046V27.5664C36.4218 29.7127 34.6248 31.4609 32.4186 31.4609ZM31.7959 19.7603C30.8707 19.7603 30.1057 20.5046 30.1057 21.4046V27.5664C30.1057 28.4665 30.8707 29.2108 31.7959 29.2108H32.4186C33.3438 29.2108 34.1089 28.4665 34.1089 27.5664V21.4046C34.1089 20.5046 33.3438 19.7603 32.4186 19.7603H31.7959ZM9.12918 42.7806H9.75189C11.9581 42.7806 13.7551 41.0325 13.7551 38.8862V32.7244C13.7551 30.5781 11.9581 28.83 9.75189 28.83H9.12918C6.92297 28.83 5.12598 30.5781 5.12598 32.7244V38.8862C5.12598 41.0325 6.92297 42.7806 9.12918 42.7806ZM7.43894 32.7244C7.43894 31.8243 8.20399 31.0801 9.12918 31.0801H9.75189C10.6771 31.0801 11.4421 31.8243 11.4421 32.7244V38.8862C11.4421 39.7862 10.6771 40.5305 9.75189 40.5305H9.12918C8.20399 40.5305 7.43894 39.7862 7.43894 38.8862V32.7244Z" fill="#7ADEC9"/>
<defs>
<linearGradient id="paint0_linear" x1="4.11157" y1="11.9541" x2="26.3884" y2="48.5009" gradientUnits="userSpaceOnUse">
<stop stop-color="#FFAA30"/>
<stop offset="0.802083" stop-color="#FE7000"/>
</linearGradient>
</defs>
</svg>
