<svg width="43" height="40" viewBox="0 0 43 40" fill="none" xmlns="http://www.w3.org/2000/svg">
<path fill-rule="evenodd" clip-rule="evenodd" d="M23.1267 11.5079H25.1902V6.98413H32.3331V0H23.1267V11.5079ZM30.2696 4.92064H25.1902V2.06349H30.2696V4.92064ZM23.6825 23.7936L26.7936 25.9683L28.2063 24.7302L29.3651 26.4603L26.9365 28.5873L23.6825 26.3175L20.4603 28.5714L18.0952 26.6508L19.3174 24.9841L20.5555 25.9841L23.6825 23.7936Z" fill="#2D2D2D"/>
<path fill-rule="evenodd" clip-rule="evenodd" d="M24.1269 12.6509L42.5237 40.0001H40.0475L24.0475 16.2382L15.857 27.4128L14.6824 25.5398L24.1269 12.6509ZM11.9206 23.7144L18.9524 34.9208H16.5238L11.7937 27.397L2.55556 40.0001H0L11.9206 23.7144Z" fill="#2D2D2D"/>
</svg>
