<svg width="48" height="22" viewBox="0 0 48 22" fill="none" xmlns="http://www.w3.org/2000/svg">
<path fill-rule="evenodd" clip-rule="evenodd" d="M15.102 7.48145H33.1213V9.43551H15.102V7.48145ZM15.102 11.6129H33.1213V13.567H15.102V11.6129Z" fill="#2D2D2D"/>
<path fill-rule="evenodd" clip-rule="evenodd" d="M8.22104 0H9.60284C11.4592 0 12.9666 1.50742 12.9666 3.36379V17.9914C12.9666 19.8477 11.4592 21.3552 9.60284 21.3552H8.22104C6.47633 21.3552 5.02474 20.0152 4.87121 18.2984H3.36379C1.50742 18.2984 0 16.791 0 14.9346V6.11344C0 4.25707 1.50742 2.74965 3.36379 2.74965H4.91308C5.20619 1.1864 6.57404 0 8.22104 0ZM1.95407 6.11344V14.9346C1.95407 15.7163 2.58216 16.3444 3.36379 16.3444H4.85725V4.70372H3.36379C2.58216 4.70372 1.95407 5.33181 1.95407 6.11344ZM9.60284 19.4011C10.3845 19.4011 11.0126 18.773 11.0126 17.9914V3.36379C11.0126 2.58216 10.3845 1.95407 9.60284 1.95407H8.22104C7.43941 1.95407 6.81132 2.58216 6.81132 3.36379V17.9914C6.81132 18.773 7.43941 19.4011 8.22104 19.4011H9.60284ZM39.779 0H38.3972C36.5408 0 35.0334 1.50742 35.0334 3.36379V17.9914C35.0334 19.8477 36.5408 21.3552 38.3972 21.3552H39.779C41.5237 21.3552 42.9753 20.0152 43.1288 18.2984H44.6362C46.4926 18.2984 48 16.791 48 14.9346V6.11344C48 4.25707 46.4926 2.74965 44.6362 2.74965H43.0869C42.7938 1.1864 41.426 0 39.779 0ZM46.0459 6.11344V14.9346C46.0459 15.7163 45.4178 16.3444 44.6362 16.3444H43.1428V4.70372H44.6362C45.4178 4.70372 46.0459 5.33181 46.0459 6.11344ZM38.3972 19.4011C37.6155 19.4011 36.9874 18.773 36.9874 17.9914V3.36379C36.9874 2.58216 37.6155 1.95407 38.3972 1.95407H39.779C40.5606 1.95407 41.1887 2.58216 41.1887 3.36379V17.9914C41.1887 18.773 40.5606 19.4011 39.779 19.4011H38.3972Z" fill="#2D2D2D"/>
</svg>
