<svg width="24" height="24" viewBox="0 0 24 24" fill="none" xmlns="http://www.w3.org/2000/svg">
<path fill-rule="evenodd" clip-rule="evenodd" d="M15.7903 19.9783C14.5016 20.6318 13.0438 21 11.5 21C6.25329 21 2 16.7467 2 11.5C2 6.25329 6.25329 2 11.5 2C16.7467 2 21 6.25329 21 11.5C21 13.0438 20.6318 14.5015 19.9784 15.7902L20.9702 19.7575C21.0554 20.0982 20.9555 20.4587 20.7071 20.7071C20.4587 20.9555 20.0983 21.0553 19.7575 20.9701L15.7903 19.9783Z" fill="#313136"/>
<path d="M12.4 12.8826C14.0533 12.3983 15.0933 10.8377 14.9067 9.11576C14.7467 7.52832 13.44 6.20993 11.84 6.02159C10.88 5.91397 9.89333 6.20993 9.14667 6.88258C8.42667 7.55522 8 8.49692 8 9.49244C8 9.7884 8.24 10.0306 8.53333 10.0306C8.64 10.0306 8.74667 10.0037 8.82667 9.94984C8.96 9.84222 9.06667 9.68078 9.06667 9.49244C9.06667 8.81979 9.36 8.14715 9.86667 7.68975C10.3733 7.23235 11.04 7.0171 11.7333 7.09782C12.8267 7.20545 13.7067 8.12024 13.84 9.22338C13.9733 10.4072 13.2267 11.5104 12.1067 11.8332C11.44 12.0216 10.9867 12.5866 10.9333 13.2593V13.3938V14.0664C10.9333 14.3624 11.1733 14.6045 11.4667 14.6045C11.76 14.6045 12 14.3624 12 14.0664V13.3938C12 13.1516 12.16 12.9633 12.4 12.8826Z" fill="white"/>
<path d="M12 16.2458C12 16.1113 11.9467 15.9767 11.84 15.8691C11.6533 15.6539 11.28 15.6539 11.0933 15.8691C10.9867 15.9767 10.9333 16.1113 10.9333 16.2458C10.9333 16.3803 10.9867 16.5149 11.0933 16.6225C11.2 16.7301 11.3333 16.7839 11.4667 16.7839C11.6 16.7839 11.7333 16.7301 11.84 16.6225C11.9467 16.5149 12 16.3803 12 16.2458Z" fill="white"/>
</svg>
