<?xml version="1.0" encoding="UTF-8"?>
<svg width="24px" height="24px" viewBox="0 0 24 24" version="1.1" xmlns="http://www.w3.org/2000/svg" xmlns:xlink="http://www.w3.org/1999/xlink">
    <title>foundation/icon/24/ic_share</title>
    <g id="foundation/icon/24/ic_share" stroke="none" stroke-width="1" fill="none" fill-rule="evenodd">
        <g id="Component/icon/ic_Share" transform="translate(2.000000, 2.000000)">
            <g id="Share">
                <circle id="Oval" cx="10" cy="10" r="10"></circle>
                <g id="Group-24-Copy" transform="translate(10.000000, 10.000000) scale(-1, 1) translate(-10.000000, -10.000000) translate(0.833333, 0.833333)" fill="#323137">
                    <path d="M3.33333333,0 C5.1742825,0 6.66666667,1.49238417 6.66666667,3.33333333 C6.66666667,3.44106295 6.66155612,3.54759894 6.65156424,3.65271208 L12.8098485,6.65376642 C13.3956039,6.14281672 14.1616601,5.83333333 15,5.83333333 C16.8409492,5.83333333 18.3333333,7.3257175 18.3333333,9.16666667 C18.3333333,11.0076158 16.8409492,12.5 15,12.5 C14.1309928,12.5 13.3396545,12.1674601 12.7462951,11.6226904 L6.65328249,14.699249 C6.66214162,14.7983152 6.66666667,14.8986291 6.66666667,15 C6.66666667,16.8409492 5.1742825,18.3333333 3.33333333,18.3333333 C1.49238417,18.3333333 0,16.8409492 0,15 C0,13.1590508 1.49238417,11.6666667 3.33333333,11.6666667 C4.47603678,11.6666667 5.48444293,12.2416617 6.0850044,13.1181044 L11.834639,10.2143419 C11.7256535,9.88488601 11.6666667,9.53266489 11.6666667,9.16666667 C11.6666667,8.77303282 11.7348977,8.39533518 11.860178,8.0447555 L6.07738059,5.22630697 C5.47593079,6.09651365 4.47121525,6.66666667 3.33333333,6.66666667 C1.49238417,6.66666667 0,5.1742825 0,3.33333333 C0,1.49238417 1.49238417,0 3.33333333,0 Z M3.33333333,13.3333333 C2.41285875,13.3333333 1.66666667,14.0795254 1.66666667,15 C1.66666667,15.9204746 2.41285875,16.6666667 3.33333333,16.6666667 C4.25380792,16.6666667 5,15.9204746 5,15 C5,14.0795254 4.25380792,13.3333333 3.33333333,13.3333333 Z M15,7.5 C14.0795254,7.5 13.3333333,8.24619208 13.3333333,9.16666667 C13.3333333,10.0871412 14.0795254,10.8333333 15,10.8333333 C15.9204746,10.8333333 16.6666667,10.0871412 16.6666667,9.16666667 C16.6666667,8.24619208 15.9204746,7.5 15,7.5 Z M3.33333333,1.66666667 C2.41285875,1.66666667 1.66666667,2.41285875 1.66666667,3.33333333 C1.66666667,4.25380792 2.41285875,5 3.33333333,5 C4.25380792,5 5,4.25380792 5,3.33333333 C5,2.41285875 4.25380792,1.66666667 3.33333333,1.66666667 Z" id="Combined-Shape"></path>
                </g>
            </g>
        </g>
    </g>
</svg>