<svg width="24" height="24" viewBox="0 0 24 24" fill="none" xmlns="http://www.w3.org/2000/svg">
  <path
    d="M11.5 3C9.77609 3 8.12279 3.72947 6.90381 5.02793C5.68482 6.32638 5 8.08747 5 9.92377C5 13.5241 10.4015 20.0394 11.019 20.7733C11.0799 20.8447 11.1542 20.9018 11.237 20.9408C11.3198 20.9798 11.4094 21 11.5 21C11.5906 21 11.6802 20.9798 11.763 20.9408C11.8458 20.9018 11.9201 20.8447 11.981 20.7733C12.5985 20.0394 18 13.5241 18 9.92377C18 8.08747 17.3152 6.32638 16.0962 5.02793C14.8772 3.72947 13.2239 3 11.5 3ZM11.5 13.3857C10.7287 13.3857 9.97463 13.142 9.33328 12.6855C8.69192 12.2291 8.19205 11.5803 7.89687 10.8212C7.60169 10.0621 7.52446 9.22679 7.67494 8.42094C7.82542 7.61509 8.19686 6.87487 8.74228 6.29389C9.28771 5.7129 9.98262 5.31725 10.7391 5.15695C11.4957 4.99666 12.2798 5.07893 12.9925 5.39336C13.7051 5.70778 14.3142 6.24024 14.7427 6.92341C15.1713 7.60657 15.4 8.40976 15.4 9.23139C15.4 10.3332 14.9891 11.3898 14.2577 12.1689C13.5263 12.948 12.5343 13.3857 11.5 13.3857Z" />
</svg>