<svg width="24" height="24" viewBox="0 0 24 24" fill="none" xmlns="http://www.w3.org/2000/svg">
<path fill-rule="evenodd" clip-rule="evenodd" d="M13 5C13 5.07055 12.9927 5.1394 12.9788 5.20582C15.4463 5.68103 17.1478 7.8883 17.1478 10.5395L17.1905 14.5392C17.1905 14.8747 17.4602 15.1429 17.793 15.1429C18.4571 15.1429 19 15.683 19 16.3492C19 17.0141 18.4586 17.5556 17.7907 17.5556H6.20933C5.54106 17.5556 5 17.0155 5 16.3492C5 15.6843 5.54038 15.1429 6.20698 15.1429C6.53862 15.1429 6.80952 14.8726 6.80952 14.5392L6.76687 10.5395C6.76687 7.86841 8.51825 5.64959 11.0192 5.19596C11.0066 5.13259 11 5.06707 11 5C11 4.44772 11.4477 4 12 4C12.5523 4 13 4.44772 13 5ZM14.3333 18.3333C14.3333 19.622 13.2887 20.6667 12 20.6667C10.7113 20.6667 9.66668 19.622 9.66668 18.3333H14.3333Z" fill="#313136"/>
</svg>
