<svg width="48" height="40" viewBox="0 0 48 40" fill="none" xmlns="http://www.w3.org/2000/svg">
<path d="M23.6706 39.9998C17.0902 39.9998 11.7291 34.6386 11.7291 28.0582C11.7291 21.4779 17.0902 16.1167 23.6706 16.1167C30.251 16.1167 35.6122 21.4779 35.6122 28.0582C35.6122 34.6386 30.2677 39.9998 23.6706 39.9998ZM23.6706 18.2879C18.276 18.2879 13.9003 22.6637 13.9003 28.0582C13.9003 33.4528 18.276 37.8286 23.6706 37.8286C29.0652 37.8286 33.441 33.4528 33.441 28.0582C33.441 22.6637 29.0652 18.2879 23.6706 18.2879Z" fill="#7ADEC9"/>
<path d="M9.50731 19.0397L-2 0H13.2818L20.5136 11.9582L18.9937 12.2589C15.5699 12.9436 12.547 14.881 10.4927 17.7203L9.50731 19.0397ZM1.84134 2.17119L9.70772 15.1983C11.6952 12.9603 14.2338 11.3403 17.0731 10.4885L12.0459 2.17119H1.84134Z" fill="#7ADEC9"/>
<path d="M37.8828 19.1232L36.9142 17.8037C34.8432 14.9645 31.8202 13.0104 28.4131 12.3424L26.8933 12.0417L34.125 0.0834961H49.4068L37.8828 19.1232ZM30.3171 10.572C33.1563 11.4238 35.695 13.0438 37.6824 15.2651L45.5488 2.23798H35.3442L30.3171 10.572Z" fill="#7ADEC9"/>
<path d="M24.7722 24.4009H22.601V31.9833H24.7722V24.4009Z" fill="white"/>
</svg>
