<svg width="24" height="24" viewBox="0 0 24 24" fill="none" xmlns="http://www.w3.org/2000/svg">
<path fill-rule="evenodd" clip-rule="evenodd" d="M12 21C16.9706 21 21 16.9706 21 12C21 7.02944 16.9706 3 12 3C7.02944 3 3 7.02944 3 12C3 16.9706 7.02944 21 12 21ZM13.6669 12.4943C13.1735 12.824 12.5934 13 12 13C11.2049 12.9992 10.4426 12.683 9.88018 12.121C9.3178 11.5589 9.00127 10.7967 9 10.0016C8.99968 9.40819 9.17536 8.82801 9.50481 8.33446C9.83427 7.8409 10.3027 7.45613 10.8508 7.22882C11.399 7.00151 12.0022 6.94188 12.5843 7.05745C13.1663 7.17303 13.701 7.45862 14.1208 7.87812C14.5405 8.29761 14.8264 8.83215 14.9422 9.41414C15.0581 9.99613 14.9988 10.5994 14.7718 11.1477C14.5448 11.696 14.1603 12.1646 13.6669 12.4943ZM7.01442 18.2569C7.11105 17.1438 7.64016 16.0972 8.50887 15.3138C9.44291 14.4714 10.6957 14 12 14C13.3043 14 14.5571 14.4714 15.4911 15.3138C16.3598 16.0972 16.889 17.1438 16.9856 18.2569C15.6182 19.3479 13.8853 20 12 20C10.1147 20 8.38179 19.3479 7.01442 18.2569Z" fill="#313136"/>
</svg>
