<svg width="56" height="50" viewBox="0 0 56 50" fill="none" xmlns="http://www.w3.org/2000/svg">
<g filter="url(#filter0_d)">
<circle cx="26" cy="26" r="20" fill="url(#paint0_linear)"/>
</g>
<path fill-rule="evenodd" clip-rule="evenodd" d="M24 18.4C24 18.1791 24.1791 18 24.4 18H27.6C27.8209 18 28 18.1791 28 18.4V33.6C28 33.8209 27.8209 34 27.6 34H24.4C24.1791 34 24 33.8209 24 33.6V18.4ZM30 22.4C30 22.1791 30.1791 22 30.4 22H33.6C33.8209 22 34 22.1791 34 22.4V33.6C34 33.8209 33.8209 34 33.6 34H30.4C30.1791 34 30 33.8209 30 33.6V22.4ZM18.4 27C18.1791 27 18 27.1791 18 27.4V33.6C18 33.8209 18.1791 34 18.4 34H21.6C21.8209 34 22 33.8209 22 33.6V27.4C22 27.1791 21.8209 27 21.6 27H18.4Z" fill="white"/>
<defs>
<filter id="filter0_d" x="0" y="0" width="56" height="56" filterUnits="userSpaceOnUse" color-interpolation-filters="sRGB">
<feFlood flood-opacity="0" result="BackgroundImageFix"/>
<feColorMatrix in="SourceAlpha" type="matrix" values="0 0 0 0 0 0 0 0 0 0 0 0 0 0 0 0 0 0 127 0"/>
<feOffset dx="2" dy="2"/>
<feGaussianBlur stdDeviation="4"/>
<feColorMatrix type="matrix" values="0 0 0 0 0 0 0 0 0 0 0 0 0 0 0 0 0 0 0.16 0"/>
<feBlend mode="normal" in2="BackgroundImageFix" result="effect1_dropShadow"/>
<feBlend mode="normal" in="SourceGraphic" in2="effect1_dropShadow" result="shape"/>
</filter>
<linearGradient id="paint0_linear" x1="6" y1="6" x2="46" y2="46" gradientUnits="userSpaceOnUse">
<stop stop-color="#FFAA30"/>
<stop offset="0.802083" stop-color="#FE7000"/>
</linearGradient>
</defs>
</svg>
