<svg width="24" height="24" viewBox="0 0 24 24" fill="none" xmlns="http://www.w3.org/2000/svg">
<path d="M20.9434 11.0036C20.9146 10.7497 20.6193 10.5607 20.3636 10.5607C19.9584 10.5696 19.5603 10.4541 19.2229 10.2298C18.8855 10.0055 18.6251 9.68309 18.4767 9.30616C18.3283 8.92922 18.2991 8.51586 18.393 8.12183C18.487 7.72779 18.6996 7.37204 19.0021 7.10256C19.0964 7.0172 19.1546 6.89918 19.165 6.77246C19.1754 6.64574 19.1371 6.51983 19.058 6.42029C18.6373 5.88841 18.1582 5.40534 17.6299 4.98015C17.5299 4.90039 17.4033 4.86176 17.2758 4.87213C17.1483 4.8825 17.0295 4.94109 16.9438 5.03595C16.6618 5.33274 16.2981 5.53923 15.8986 5.62927C15.4992 5.71932 15.082 5.68888 14.6999 5.5418C14.3214 5.37985 14.0018 5.10537 13.7847 4.75562C13.5675 4.40587 13.4633 3.9978 13.4862 3.5868C13.493 3.45911 13.4511 3.33359 13.3688 3.23565C13.2866 3.13772 13.1702 3.07469 13.0432 3.05935C12.3708 2.98207 11.6918 2.98025 11.019 3.05395C10.8938 3.0679 10.7783 3.12838 10.6956 3.22341C10.6129 3.31844 10.5689 3.44108 10.5724 3.567C10.5869 3.97442 10.4766 4.37656 10.2561 4.71953C10.0356 5.0625 9.71559 5.32994 9.33883 5.486C8.95824 5.62738 8.54469 5.65483 8.14874 5.565C7.7528 5.47516 7.39162 5.27192 7.10939 4.98015C7.02415 4.88693 6.90681 4.82937 6.78089 4.81902C6.65497 4.80867 6.5298 4.84629 6.43047 4.92434C5.89187 5.34709 5.40364 5.83031 4.9754 6.36449C4.89599 6.46433 4.85726 6.59048 4.86694 6.71766C4.87663 6.84484 4.93402 6.96367 5.02762 7.05036C5.33555 7.32627 5.55002 7.69108 5.64133 8.09425C5.73264 8.49742 5.69627 8.919 5.53726 9.30059C5.36597 9.67256 5.0887 9.98575 4.74018 10.2009C4.39165 10.4161 3.98737 10.5237 3.57794 10.5103C3.45087 10.5023 3.32566 10.544 3.22884 10.6267C3.13203 10.7093 3.07122 10.8264 3.0593 10.9532C2.98023 11.6325 2.98023 12.3188 3.0593 12.9982C3.08271 13.261 3.38886 13.441 3.64638 13.441C4.04319 13.4378 4.43182 13.5538 4.7619 13.774C5.09198 13.9942 5.3483 14.3084 5.49764 14.6759C5.65021 15.0539 5.68386 15.4693 5.59408 15.8669C5.50431 16.2645 5.29539 16.6252 4.9952 16.901C4.90145 16.9862 4.84354 17.1039 4.83318 17.2302C4.82282 17.3565 4.86077 17.482 4.93938 17.5814C5.35786 18.1141 5.83577 18.5973 6.36384 19.0216C6.46339 19.1018 6.58977 19.141 6.71725 19.1313C6.84472 19.1216 6.96371 19.0637 7.04996 18.9694C7.33236 18.6721 7.69652 18.465 8.09649 18.3744C8.49647 18.2837 8.91434 18.3135 9.29741 18.4599C9.67713 18.62 9.9979 18.8937 10.2156 19.2435C10.4333 19.5933 10.5372 20.0019 10.513 20.4131C10.5061 20.5408 10.5481 20.6663 10.6303 20.7643C10.7126 20.8622 10.829 20.9252 10.956 20.9406C11.3004 20.9797 11.6467 20.9996 11.9933 21C12.3236 21.0007 12.6537 20.982 12.9819 20.9442C13.1078 20.9302 13.2238 20.8692 13.3066 20.7734C13.3894 20.6776 13.4329 20.5541 13.4285 20.4275C13.4132 20.0204 13.5228 19.6184 13.7427 19.2753C13.9625 18.9323 14.2821 18.6647 14.6585 18.5085C15.0389 18.3678 15.4521 18.3413 15.8473 18.4325C16.2425 18.5237 16.6024 18.7284 16.8825 19.0216C16.9678 19.1148 17.0851 19.1724 17.211 19.1827C17.337 19.1931 17.4621 19.1554 17.5615 19.0774C18.0992 18.6537 18.5874 18.1706 19.0165 17.6372C19.0968 17.5377 19.136 17.4114 19.1263 17.284C19.1166 17.1565 19.0587 17.0376 18.9643 16.9514C18.6606 16.6837 18.4462 16.3294 18.35 15.9361C18.2539 15.5429 18.2806 15.1297 18.4266 14.7521C18.5726 14.3745 18.8308 14.0508 19.1665 13.8244C19.5022 13.598 19.8992 13.4799 20.3041 13.486H20.4158C20.5435 13.4929 20.6691 13.4509 20.7671 13.3687C20.865 13.2865 20.9281 13.1701 20.9434 13.0432C21.0189 12.3654 21.0189 11.6813 20.9434 11.0036V11.0036ZM12.0131 15.0198C11.4193 15.0198 10.8389 14.8438 10.3453 14.514C9.85158 14.1843 9.4668 13.7156 9.23959 13.1673C9.01237 12.6189 8.95292 12.0155 9.06876 11.4334C9.18459 10.8513 9.4705 10.3166 9.89034 9.8969C10.3102 9.47722 10.8451 9.19141 11.4274 9.07562C12.0097 8.95983 12.6133 9.01926 13.1619 9.24639C13.7104 9.47352 14.1793 9.85815 14.5091 10.3517C14.839 10.8451 15.0151 11.4253 15.0151 12.0189C15.0141 12.8145 14.6975 13.5772 14.1348 14.1398C13.572 14.7023 12.809 15.0188 12.0131 15.0198V15.0198Z" fill="#313136"/>
</svg>
