<svg width="29" height="40" viewBox="0 0 29 40" fill="none" xmlns="http://www.w3.org/2000/svg">
<path d="M14.3506 40C6.44429 40 0 33.5699 0 25.6494C0 17.7289 6.44429 11.2988 14.3506 11.2988C22.2711 11.2988 28.7012 17.7431 28.7012 25.6494C28.7012 33.5557 22.2711 40 14.3506 40ZM14.3506 13.428C7.60823 13.428 2.12917 18.9071 2.12917 25.6494C2.12917 32.3918 7.60823 37.8709 14.3506 37.8709C21.093 37.8709 26.572 32.3918 26.572 25.6494C26.572 18.9071 21.093 13.428 14.3506 13.428Z" fill="#7ADEC9"/>
<path d="M25.195 10.291H23.0658V6.08943C23.0658 3.90348 21.2915 2.12917 19.1056 2.12917H9.59528C7.40934 2.12917 5.63503 3.90348 5.63503 6.08943V10.2484H3.50586V6.08943C3.50586 2.72534 6.2312 0 9.59528 0H19.1056C22.4697 0 25.195 2.72534 25.195 6.08943V10.291Z" fill="white"/>
</svg>
