<svg width="24" height="24" viewBox="0 0 24 24" fill="none" xmlns="http://www.w3.org/2000/svg">
<path fill-rule="evenodd" clip-rule="evenodd" d="M1.21051 4.46911C1.21051 4.21003 1.42054 4 1.67962 4H2.14849H2.61785H3.55582C3.75517 4 3.93275 4.12599 3.9986 4.31414L4.7096 6.34556H22.3203C22.4752 6.34556 22.6201 6.42199 22.7075 6.54981C22.7949 6.67763 22.8137 6.84037 22.7575 6.9847L19.4737 15.4287C19.4036 15.609 19.23 15.7278 19.0365 15.7278H7.03858C6.69424 16.0975 6.5501 16.367 6.49905 16.5457C6.44848 16.7227 6.48617 16.8148 6.52627 16.8749C6.57994 16.9554 6.67526 17.0269 6.78553 17.0821C6.83408 17.1063 6.87823 17.1238 6.91042 17.1351H18.0983L18.5676 17.1351C18.8267 17.1351 19.0367 17.3452 19.0367 17.6043C19.0367 17.8633 18.8267 18.0734 18.5676 18.0734H17.6294L17.6281 18.0734H6.83961C6.80126 18.0734 6.76305 18.0687 6.72583 18.0594L6.7247 18.0591L6.72338 18.0587L6.72021 18.0579L6.7118 18.0557C6.70528 18.0539 6.69697 18.0516 6.68705 18.0487C6.66723 18.0429 6.64078 18.0347 6.6092 18.0237C6.54648 18.002 6.46107 17.9688 6.36594 17.9212C6.18302 17.8298 5.92651 17.6667 5.74562 17.3954C5.55116 17.1037 5.47157 16.7267 5.59692 16.2879C5.69927 15.9297 5.93268 15.5472 6.31346 15.1302L3.9299 6.95794L3.223 4.93822L2.61785 4.93822L2.14849 4.93822L1.67962 4.93822C1.42054 4.93822 1.21051 4.7282 1.21051 4.46911ZM8.24725 21.8263C9.0245 21.8263 9.65459 21.1962 9.65459 20.4189C9.65459 19.6417 9.0245 19.0116 8.24725 19.0116C7.47 19.0116 6.83991 19.6417 6.83991 20.4189C6.83991 21.1962 7.47 21.8263 8.24725 21.8263ZM17.6294 21.8263C18.4067 21.8263 19.0368 21.1962 19.0368 20.4189C19.0368 19.6417 18.4067 19.0116 17.6294 19.0116C16.8522 19.0116 16.2221 19.6417 16.2221 20.4189C16.2221 21.1962 16.8522 21.8263 17.6294 21.8263ZM10.5 11C10.2239 11 10 11.2239 10 11.5C10 11.7761 10.2239 12 10.5 12H15.5C15.7761 12 16 11.7761 16 11.5C16 11.2239 15.7761 11 15.5 11H10.5Z" fill="#313136"/>
</svg>
