<svg width="31" height="40" viewBox="0 0 31 40" fill="none" xmlns="http://www.w3.org/2000/svg">
<path fill-rule="evenodd" clip-rule="evenodd" d="M0 4.62012H3.81511V6.73951H2.11939V30.8441C2.11939 34.7296 5.28435 37.8946 9.16991 37.8946H21.0385C24.9241 37.8946 28.089 34.7296 28.089 30.8441V6.73951H26.422V4.62012H30.1943V30.8441C30.1943 35.8882 26.0827 39.9999 21.0244 39.9999H9.15578C4.11162 39.9999 0 35.8882 0 30.8441V4.62012ZM14.1435 5.89181H16.2629V10.5262H14.1435V5.89181Z" fill="#2D2D2D"/>
<path d="M14.904 16.4747C10.3685 16.4747 6.66667 12.7729 6.66667 8.23737C6.66667 3.70187 10.3544 0 14.904 0C19.4537 0 23.1414 3.70187 23.1414 8.23737C23.1414 12.7729 19.4395 16.4747 14.904 16.4747ZM14.904 2.11939C11.5271 2.11939 8.78607 4.86047 8.78607 8.23737C8.78607 11.6143 11.5271 14.3554 14.904 14.3554C18.2809 14.3554 21.022 11.6143 21.022 8.23737C21.022 4.86047 18.2668 2.11939 14.904 2.11939Z" fill="#2D2D2D"/>
</svg>
